<?xml version="1.0" standalone="no"?>
<!DOCTYPE svg PUBLIC "-//W3C//DTD SVG 20010904//EN"
 "http://www.w3.org/TR/2001/REC-SVG-20010904/DTD/svg10.dtd">
<svg  version="1.0" xmlns="http://www.w3.org/2000/svg"
 width="512.000000pt" height="512.000000pt" viewBox="0 0 512.000000 512.000000"
 preserveAspectRatio="xMidYMid meet">

<g transform="translate(0.000000,512.000000) scale(0.100000,-0.100000)"
fill="#000000" stroke="none">
<path fill="#209e10" d="M3140 3445 c-844 -558 -1540 -1013 -1547 -1011 -6 3 -248 194 -537
425 -631 505 -599 481 -646 481 -51 0 -90 -39 -90 -90 0 -28 132 -316 556
-1211 306 -646 575 -1215 599 -1265 31 -64 51 -93 70 -102 43 -20 82 -15 114
16 16 15 730 838 1585 1830 1554 1801 1556 1803 1556 1847 0 36 -5 47 -31 69
-19 16 -43 26 -63 26 -25 0 -332 -199 -1566 -1015z"/>
</g>
</svg>
